<svg id="74257867-7eb5-410b-9115-8eb69cc097bd" data-name="Layer 1" xmlns="http://www.w3.org/2000/svg" viewBox="0 0 186.18 319.07"><defs><style>.\32 17888d1-323c-4956-a8a4-647bedff04cd{fill:#fff}</style></defs><title>logo_1</title><path class="217888d1-323c-4956-a8a4-647bedff04cd" d="M58.57 5c27 0 48.5 19.89 48.5 45.78 0 14.49-4.75 25.1-12.13 32.72-2.6-2.35-4.35-3.68-7-6.17 7.21-6.91 10.12-16.51 10.12-26 0-22.5-17.35-38.23-39.59-38.23S18.89 28.89 18.89 51.38C18.89 61.11 22 71 29 78c-2.54 3.13-4.54 5.21-6.28 7.11-8.26-7.76-12.84-18.82-12.84-34.33C9.88 22.51 31.54 5 58.57 5zM11.18 154.37l45.09-44-4.27-5.25H11.18v-10H181v10H63.85l40.92 39.65V158L63 116.86l-51.8 50.93v-13.42z"/><path class="217888d1-323c-4956-a8a4-647bedff04cd" d="M102.35 313.76H5l7.25-7.6c4.27-4.48 10.31-10.31 17.29-17.07 25.55-24.7 68.31-66 68.31-85.59 0-21.27-17.1-37.93-38.93-37.93A38.93 38.93 0 0 0 31.4 232l-6.4 6.39a47.92 47.92 0 0 1 33.88-81.8c26.87 0 47.92 20.61 47.92 46.92 0 21.57-33.61 55.85-71 92.05-3.43 3.32-6.63 6.41-9.48 9.21h76v9z"/></svg>