<svg xmlns="http://www.w3.org/2000/svg" width="26.1" height="21.438" viewBox="0 0 26.1 21.438"><defs><style>.cls-1{fill-rule:evenodd}</style></defs><path id="tw" class="cls-1" d="M26.11 2.546a10.626 10.626 0 0 1-3.07.852A5.437 5.437 0 0 0 25.39.405a10.708 10.708 0 0 1-3.4 1.313 5.343 5.343 0 0 0-9.26 3.7 5.56 5.56 0 0 0 .14 1.233A15.16 15.16 0 0 1 1.83 1a5.465 5.465 0 0 0 1.66 7.22 5.257 5.257 0 0 1-2.42-.676v.068a5.4 5.4 0 0 0 4.29 5.305 5.3 5.3 0 0 1-2.42.092 5.365 5.365 0 0 0 5 3.756 10.717 10.717 0 0 1-7.92 2.24 15.035 15.035 0 0 0 8.2 2.43c9.85 0 15.23-8.242 15.23-15.39 0-.235 0-.47-.01-.7a11.064 11.064 0 0 0 2.67-2.8z"/></svg>