<svg xmlns="http://www.w3.org/2000/svg" width="28.88" height="16.812" viewBox="0 0 28.88 16.812"><defs><style>.cls-1{fill-rule:evenodd}</style></defs><path id="vk" class="cls-1" d="M14.14 16.582h1.73a1.422 1.422 0 0 0 .78-.35 1.26 1.26 0 0 0 .24-.766s-.03-2.343 1.04-2.688 2.42 2.265 3.86 3.266a2.71 2.71 0 0 0 1.92.592l3.85-.054s2.02-.126 1.06-1.73a12.907 12.907 0 0 0-2.86-3.358c-2.42-2.27-2.1-1.9.81-5.83 1.78-2.393 2.49-3.854 2.26-4.48-.21-.6-1.51-.438-1.51-.438l-4.34.027a.978.978 0 0 0-.56.1 1.244 1.244 0 0 0-.38.472 25.537 25.537 0 0 1-1.61 3.425c-1.93 3.322-2.7 3.5-3.02 3.29-.73-.48-.55-1.93-.55-2.96 0-3.22.49-4.562-.94-4.91a7.21 7.21 0 0 0-2.02-.2 9.26 9.26 0 0 0-3.6.373c-.5.245-.88.79-.64.822a1.962 1.962 0 0 1 1.28.652 4.355 4.355 0 0 1 .43 1.988s.25 3.79-.6 4.26c-.59.323-1.39-.336-3.11-3.35a28.824 28.824 0 0 1-1.55-3.25 1.318 1.318 0 0 0-.36-.49 1.773 1.773 0 0 0-.66-.272L.96.75a1.37 1.37 0 0 0-.84.29.894.894 0 0 0-.02.744s3.23 7.647 6.88 11.5a9.854 9.854 0 0 0 7.16 3.3z"/></svg>